<svg t="1730446544831" class="icon" viewBox="0 0 1024 1024" version="1.1" xmlns="http://www.w3.org/2000/svg" p-id="36727" width="200" height="200"><path d="M471.103411 0.00128C480.639399 0.00128 563.199296 0.641279 572.543284 1.793278L504.31937 460.928704h29.119963c1.215998-136.831829 111.99986-246.783692 247.423691-245.567693 135.487831 1.279998 244.287695 113.215858 243.071696 250.047687 0 9.727988-0.639999 93.119884-1.791998 102.463872l-462.719421-70.207912v30.719962h3.903995c87.67989 0 168.575789 47.167941 212.415734 123.903845a250.047687 250.047687 0 0 1 0 247.80769A244.799694 244.799694 0 0 1 563.391296 1024c-9.535988 0-92.159885-0.639999-101.375874-1.791998l69.951913-470.655411h-41.599948l0.256 6.975991c0 136.895829-109.823863 247.87169-245.311694 247.87169S0 695.424411 0 558.528582c0-9.599988 0.639999-93.055884 1.727998-102.463872L469.759413 526.976621v-31.167961c-135.487831-0.384-244.991694-111.67986-244.607694-248.639689C225.471718 110.273142 335.61558-0.38272 471.039411 0.00128z" fill="#17A1FF" p-id="36728"></path><path d="M511.99936 512.00064m-191.99976 0a191.99976 191.99976 0 1 0 383.99952 0 191.99976 191.99976 0 1 0-383.99952 0Z" fill="#17A1FF" p-id="36729"></path><path d="M530.303337 483.584676V384.0008L383.99952 540.416604h109.695863V640.00048L639.9992 483.584676z" fill="#FFFFFF" p-id="36730"></path></svg>